# AST/ASF file generated using VICON BodyLanguage
# -----------------------------------------------
:version 1.10
:name VICON
:units
  mass 1.0
  length 0.45
  angle deg
:documentation
   .ast/.asf automatically generated from VICON data using
   VICON BodyBuilder and BodyLanguage model FoxedUp or BRILLIANT.MOD
:root
   order TX TY TZ RX RY RZ
   axis XYZ
   position 0 0 0  
   orientation 0 0 0 
:bonedata
  begin
     id 1 
     name lhipjoint
     direction 0.521452 -0.77106 0.36545 
     length 2.0933 
     axis 0 0 0  XYZ
  end
  begin
     id 2 
     name lfemur
     direction 0.34202 -0.939693 0  
     length 6.83441  
     axis 0 0 20  XYZ
    dof rx ry rz
    limits (-160.0 20.0)
           (-70.0 70.0)
           (-60.0 70.0)
  end
  begin
     id 3 
     name ltibia
     direction 0.34202 -0.939693 0   
     length 7.28749   
     axis 0 0 20   XYZ
    dof rx
    limits (-10.0 170.0)
  end
  begin
     id 4 
     name lfoot
     direction 0.100608 -0.276418 0.955757   
     length 1.52195   
     axis -90 7.62852e-016 20   XYZ
    dof rx rz
    limits (-45.0 90.0)
           (-70.0 20.0)
  end
  begin
     id 5 
     name ltoes
     direction 1.53558e-011 -4.21907e-011 1   
     length 0.770459   
     axis -90 7.62852e-016 20   XYZ
    dof rx
    limits (-90.0 20.0)
  end
  begin
     id 6 
     name rhipjoint
     direction -0.488071 -0.788702 0.373812   
     length 2.04648  
     axis 0 0 0  XYZ 
  end
  begin
     id 7 
     name rfemur
     direction -0.34202 -0.939693 0   
     length 6.92583   
     axis 0 0 -20   XYZ
    dof rx ry rz
    limits (-160.0 20.0)
           (-70.0 70.0)
           (-70.0 60.0)
  end
  begin
     id 8 
     name rtibia
     direction -0.34202 -0.939693 0   
     length 7.41043   
     axis 0 0 -20   XYZ
    dof rx
    limits (-10.0 170.0)
 end
 begin
     id 9 
     name rfoot
     direction -0.0784433 -0.215521 0.973343   
     length 1.67708  
     axis -90 -7.62852e-016 -20   XYZ
    dof rx rz
    limits (-45.0 90.0)
           (-20.0 70.0)
  end
  begin
     id 10 
     name rtoes
     direction -1.53551e-011 -4.21842e-011 1   
     length 0.849787   
     axis -90 -7.62852e-016 -20   XYZ
    dof rx
    limits (-90.0 20.0)
  end
  begin
     id 11 
     name lowerback
     direction -0.0122332 0.997575 -0.0685192   
     length 1.98724   
     axis 0 0 0   XYZ
    dof rx ry rz
    limits (-20.0 45.0)
           (-30.0 30.0)
           (-30.0 30.0)
  end
  begin
     id 12 
     name upperback
     direction 0.0182347 0.999724 -0.0148421   
     length 1.99029   
     axis 0 0 0   XYZ
    dof rx ry rz
    limits (-20.0 45.0)
           (-30.0 30.0)
           (-30.0 30.0)
  end
  begin
     id 13 
     name thorax
     direction 0.0242908 0.99956 0.0170184   
     length 1.99573   
     axis 0 0 0   XYZ
    dof rx ry rz
    limits (-20.0 45.0)
           (-30.0 30.0)
           (-30.0 30.0)
  end
  begin
     id 14 
     name lowerneck
     direction 0.0654488 0.985533 0.156338   
     length 1.4285   
     axis 0 0 0   XYZ
    dof rx ry rz
    limits (-20.0 45.0)
           (-30.0 30.0)
           (-30.0 30.0)
  end
  begin
     id 15 
     name upperneck
     direction -0.02953 0.998556 -0.0448842   
     length 1.44709   
     axis 0 0 0   XYZ
    dof rx ry rz
    limits (-20.0 45.0)
           (-30.0 30.0)
           (-30.0 30.0)
  end
  begin
     id 16
     name head
     direction -0.0155588 0.999386 -0.0314063  
     length 1.44689  
     axis 0 0 0   XYZ
    dof rx ry rz
    limits (-20.0 45.0)
           (-30.0 30.0)
           (-30.0 30.0)
  end
  begin
     id 17 
     name lclavicle
     direction 0.968229 0.236071 -0.0824755  
     length 3.60593  
     axis 0 0 0   XYZ
    dof ry rz
    limits (-20.0 10.0)
           (0.0 20.0)
  end
  begin
     id 18 
     name lhumerus
     direction 1 -4.48968e-011 7.8138e-029   
     length 5.06035   
     axis 180 -30 -90   XYZ
    dof rx ry rz
    limits (-60.0 90.0)
           (-90.0 90.0)
           (-90.0 90.0)
  end
  begin
     id 19
     name lradius
     direction 1 -4.48967e-011 9.02887e-028   
     length 3.1478   
     axis 180 -30 -90   XYZ
    dof rx
    limits (-10.0 170.0)
  end
  begin
     id 20
     name lwrist
     direction 1 -4.48961e-011 7.20928e-028   
     length 1.5739   
     axis -5.52449e-016 90 90   XYZ
    dof ry
    limits (-180.0 0.0)
 end
  begin
     id 21 
     name lhand
     direction 1 -4.48972e-011 1.44186e-027   
     length 0.606747   
     axis -9.20027e-016 90 90   XYZ
    dof rx rz
    limits (-90.0 90.0)
           (-45.0 45.0)
  end
  begin
     id 22 
     name lfingers
     direction 1 -4.48943e-011 2.88371e-027   
     length 0.489175   
     axis -1.84005e-015 90 90   XYZ
    dof rx
    limits (0.0 90.0)
  end
  begin
     id 23
     name lthumb
     direction 0.707107 -6.34917e-011 0.707107   
     length 0.70236   
     axis -90 45 2.85299e-015   XYZ
    dof rx rz
    limits (-45.0 45.0)
           (-45.0 45.0)
  end
  begin
     id 24 
     name rclavicle
     direction -0.978165 0.207816 0.0022268   
     length 3.35425  
     axis 0 0 0   XYZ 
    dof ry rz
    limits (-10.0 20.0)
           (-20.0 0.0)
  end
  begin
     id 25 
     name rhumerus
     direction -1 -4.48964e-011 -4.02159e-027  
     length 5.12273   
     axis 180 30 90   XYZ
    dof rx ry rz
    limits (-90.0 60.0)
           (-90.0 90.0)
           (-90.0 90.0)
  end
  begin
     id 26 
     name rradius
     direction -1 -4.48966e-011 1.62746e-027   
     length 3.422   
     axis 180 30 90   XYZ
    dof rx
    limits (-10.0 170.0)
  end
  begin
     id 27 
     name rwrist
     direction -1 -4.4896e-011 7.20928e-028   
     length 1.711   
     axis -5.52449e-016 -90 -90   XYZ
    dof ry
    limits (-180.0 0.0)
  end
  begin
     id 28
     name rhand
     direction -1 -4.48979e-011 1.44186e-027   
     length 0.704599   
     axis -9.20027e-016 -90 -90   XYZ
    dof rx rz
    limits (-90.0 90.0)
           (-45.0 45.0)
  end
  begin
     id 29
     name rfingers
     direction -1 -4.48962e-011 2.88371e-027   
     length 0.568066   
     axis -1.84005e-015 -90 -90   XYZ
    dof rx
    limits (0.0 90.0)
  end
  begin
     id 30
     name rthumb
     direction -0.707107 -6.34949e-011 0.707107   
     length 0.815633   
     axis -90 -45 -2.85299e-015   XYZ
    dof rx rz
    limits (-45.0 45.0)
           (-45.0 45.0)
  end
:hierarchy
  begin
    root lhipjoint rhipjoint lowerback
    lhipjoint lfemur
    lfemur ltibia
    ltibia lfoot
    lfoot ltoes
    rhipjoint rfemur
    rfemur rtibia
    rtibia rfoot
    rfoot rtoes
    lowerback upperback
    upperback thorax
    thorax lowerneck lclavicle rclavicle
    lowerneck upperneck
    upperneck head
    lclavicle lhumerus
    lhumerus lradius
    lradius lwrist
    lwrist lhand lthumb
    lhand lfingers
    rclavicle rhumerus
    rhumerus rradius
    rradius rwrist
    rwrist rhand rthumb
    rhand rfingers
  end

#!OML:ASF Z:\Project 1\Capture day 1\Session 1\Male1.ASF
:FULLY-SPECIFIED
:DEGREES
125
root 11.4873 16.2967 0.572847 -172.841 -9.24798 178.517
lowerback -7.00355 -2.87988 -4.32816
upperback -1.07826 -3.58057 0.145438
thorax 3.07876 -1.85837 2.22496
lowerneck -4.07006 -3.93001 -0.172834
upperneck -1.19456 -5.34317 3.4803
head 0.409532 -2.68997 1.00741
rclavicle 1.10015e-014 7.95139e-015
rhumerus -3.06889 12.5174 -79.3433
rradius 77.8749
rwrist 14.011
rhand -26.3858 39.0449
rfingers 7.12502
rthumb 0.173103 9.06518
lclavicle 1.10015e-014 7.95139e-015
lhumerus -24.816 18.9498 82.5386
lradius 10.905
lwrist -22.5483
lhand -12.1855 47.8086
lfingers 7.12502
lthumb 13.8782 77.3255
rfemur -23.9408 -0.887728 14.3736
rtibia 16.3222
rfoot 1.54634 -8.84086
rtoes 4.67379
lfemur 14.4408 -3.08782 -19.4207
ltibia -1.27222e-014
lfoot -11.4302 -0.322603
ltoes 37.6547
126
root 11.5143 16.3053 0.504786 -172.864 -9.5692 178.644
lowerback -7.04189 -2.91615 -4.03009
upperback -1.07738 -3.64783 0.0757587
thorax 3.083 -1.88836 1.97793
lowerneck -4.11911 -3.96296 -0.707698
upperneck -1.15455 -5.37188 3.96287
head 0.462594 -2.70008 1.24512
rclavicle -1.544e-014 -1.98785e-015
rhumerus -2.08815 12.6149 -78.8801
rradius 78.0232
rwrist 14.3092
rhand -26.4086 39.0197
rfingers 7.12502
rthumb 0.151125 9.04002
lclavicle -1.544e-014 -1.98785e-015
lhumerus -24.8469 19.8966 81.9882
lradius 10.6088
lwrist -23.6314
lhand -11.8357 47.6214
lfingers 7.12502
lthumb 14.2153 77.1149
rfemur -23.7081 -1.35229 14.7533
rtibia 16.4462
rfoot 1.24959 -8.65335
rtoes 4.25181
lfemur 14.5977 -3.40816 -19.1068
ltibia 1.59028e-014
lfoot -10.9612 -0.362718
ltoes 36.6351
127
root 11.5476 16.3151 0.437853 -172.934 -9.77495 178.897
lowerback -6.99765 -2.95205 -3.80117
upperback -1.1451 -3.71939 0.152763
thorax 2.98364 -1.91982 1.92693
lowerneck -4.28952 -3.81662 0.503293
upperneck -0.969354 -5.21755 2.7837
head 0.47152 -2.62579 0.677321
rclavicle -2.46959e-014 -7.25564e-015
rhumerus -1.20778 12.9739 -78.3464
rradius 78.314
rwrist 14.2278
rhand -26.5468 38.741
rfingers 7.12502
rthumb 0.0176704 8.76123
lclavicle -2.46959e-014 -7.25564e-015
lhumerus -24.9902 19.9946 81.9109
lradius 10.4711
lwrist -23.595
lhand -12.0471 47.8713
lfingers 7.12502
lthumb 14.0116 77.3791
rfemur -23.4299 -1.39743 15.1631
rtibia 16.5185
rfoot 0.775187 -8.73336
rtoes 6.40798
lfemur 14.8063 -3.60866 -18.635
ltibia -9.54166e-015
lfoot -10.5174 -0.411306
ltoes 35.8198
128
root 11.5847 16.3259 0.373924 -172.956 -9.90467 179.068
lowerback -6.89663 -2.94902 -3.80064
upperback -1.24378 -3.72697 0.255833
thorax 2.8324 -1.92151 2.04066
lowerneck -4.12921 -3.86476 -0.361845
upperneck -0.921421 -5.24986 3.57604
head 0.510776 -2.63534 1.06626
rclavicle -3.53775e-014 -4.07509e-015
rhumerus -0.403699 13.2449 -77.8313
rradius 78.565
rwrist 14.2491
rhand -26.8533 38.4011
rfingers 7.12502
rthumb -0.278433 8.42157
lclavicle -3.53775e-014 -4.07509e-015
lhumerus -25.1609 20.5373 81.6956
lradius 10.2407
lwrist -24.1751
lhand -12.4149 47.8797
lfingers 7.12502
lthumb 13.6571 77.4117
rfemur -23.1935 -1.44964 15.5007
rtibia 16.5581
rfoot 0.286047 -8.77582
rtoes 8.3376
lfemur 14.9822 -3.74457 -18.2459
ltibia -4.13472e-014
lfoot -10.0289 -0.518252
ltoes 35.5932
129
root 11.6247 16.3287 0.307419 -172.968 -9.90665 179.144
lowerback -6.90714 -2.82962 -3.82052
upperback -1.26527 -3.56712 0.219267
thorax 2.80429 -1.84195 2.0304
lowerneck -4.14646 -3.95045 -0.40646
upperneck -0.884636 -5.36836 3.76341
head 0.535009 -2.69377 1.12892
rclavicle 4.51303e-014 2.98177e-015
rhumerus 0.406942 13.0763 -77.4345
rradius 78.6145
rwrist 14.6161
rhand -27.0892 38.3431
rfingers 7.12502
rthumb -0.506206 8.36391
lclavicle 4.51303e-014 2.98177e-015
lhumerus -25.1406 20.7384 81.4559
lradius 10.0107
lwrist -24.788
lhand -12.2086 47.5492
lfingers 7.12502
lthumb 13.856 77.0676
rfemur -22.9721 -1.67363 15.8411
rtibia 16.5827
rfoot 0.0141228 -8.73103
rtoes 7.75556
lfemur 15.2101 -3.76674 -17.9745
ltibia 2.22639e-014
lfoot -9.56134 -0.572644
ltoes 36.0652
130
root 11.6654 16.334 0.237296 -173.028 -9.84064 179.225
lowerback -6.95403 -2.73535 -3.87122
upperback -1.28354 -3.4378 0.228056
thorax 2.80644 -1.77843 2.07907
lowerneck -4.16844 -4.05634 -0.71848
upperneck -0.793573 -5.49211 3.79203
head 0.5803 -2.75083 1.18633
rclavicle -1.68128e-014 -3.97569e-015
rhumerus 1.27532 13.0359 -77.0169
rradius 78.656
rwrist 14.7248
rhand -27.0425 38.3011
rfingers 7.12502
rthumb -0.46117 8.32189
lclavicle -1.68128e-014 -3.97569e-015
lhumerus -25.2529 20.6796 81.311
lradius 9.99344
lwrist -24.9635
lhand -12.1873 47.5366
lfingers 7.12502
lthumb 13.8765 77.0536
rfemur -22.6944 -1.77162 16.1707
rtibia 16.6071
rfoot -0.252839 -8.74292
rtoes 7.08682
lfemur 15.4934 -3.71972 -17.7351
ltibia -3.81667e-014
lfoot -9.16281 -0.437023
ltoes 35.7883
131
root 11.701 16.3467 0.170773 -173.099 -10.0008 179.311
lowerback -6.88632 -2.80286 -3.89839
upperback -1.32443 -3.53204 0.307788
thorax 2.73931 -1.82444 2.1715
lowerneck -4.0007 -3.93061 -0.179958
upperneck -0.932337 -5.33656 3.3076
head 0.473467 -2.67991 0.953912
rclavicle -4.21858e-014 -5.96354e-016
rhumerus 2.22319 13.3667 -76.5503
rradius 78.7579
rwrist 14.6694
rhand -27.0206 38.2016
rfingers 7.12502
rthumb -0.440017 8.22231
lclavicle -4.21858e-014 -5.96354e-016
lhumerus -25.3603 20.9914 81.2994
lradius 9.91619
lwrist -25.1436
lhand -12.4687 47.7762
lfingers 7.12502
lthumb 13.6053 77.3116
rfemur -22.3826 -1.97294 16.4717
rtibia 16.6524
rfoot -0.721126 -8.90272
rtoes 8.9676
lfemur 15.7072 -3.89019 -17.4917
ltibia -4.13472e-014
lfoot -8.7275 -0.222224
ltoes 34.4907
132
root 11.7336 16.357 0.104441 -173.213 -10.2285 179.553
lowerback -6.83964 -2.83615 -3.62087
upperback -1.31237 -3.59669 0.319335
thorax 2.71427 -1.85333 2.02423
lowerneck -4.07383 -3.89542 -0.450352
upperneck -0.856185 -5.28366 3.5565
head 0.524421 -2.65003 1.07477
rclavicle -1.03306e-014 -1.19271e-015
rhumerus 3.16026 13.4904 -76.2616
rradius 78.8408
rwrist 14.7486
rhand -27.1265 38.1238
rfingers 7.12502
rthumb -0.542285 8.1447
lclavicle -1.03306e-014 -1.19271e-015
lhumerus -25.299 21.1574 81.2538
lradius 9.76258
lwrist -25.2935
lhand -12.4496 47.7699
lfingers 7.12502
lthumb 13.6237 77.304
rfemur -22.0517 -2.25531 16.9553
rtibia 16.7013
rfoot -1.14967 -8.98262
rtoes 9.98032
lfemur 15.9507 -4.11945 -17.0417
ltibia 0
lfoot -8.28755 -0.191134
ltoes 34.4193
133
root 11.7673 16.3628 0.0365827 -173.228 -10.3177 179.74
lowerback -6.91256 -2.77414 -3.44611
upperback -1.35273 -3.52686 0.31428
thorax 2.69796 -1.81733 1.92614
lowerneck -3.95545 -3.97566 -0.539067
upperneck -0.895117 -5.38936 3.75099
head 0.503904 -2.70387 1.15089
rclavicle -1.91392e-014 -7.55382e-015
rhumerus 3.96798 13.3806 -75.9257
rradius 78.8959
rwrist 14.8858
rhand -27.1094 38.218
rfingers 7.12502
rthumb -0.525706 8.23889
lclavicle -1.91392e-014 -7.55382e-015
lhumerus -25.3079 21.1324 81.2197
lradius 9.63658
lwrist -25.3798
lhand -12.5507 47.7245
lfingers 7.12502
lthumb 13.5263 77.2652
rfemur -21.8319 -2.76485 17.4707
rtibia 16.6975
rfoot -1.26555 -8.56053
rtoes 7.5168
lfemur 16.1299 -4.21668 -16.6503
ltibia -2.54444e-014
lfoot -7.79952 -0.160868
ltoes 35.1737
134
root 11.8011 16.368 -0.0315209 -173.178 -10.3354 179.732
lowerback -6.99207 -2.7595 -3.60071
upperback -1.42599 -3.49998 0.371822
thorax 2.67736 -1.80593 2.07259
lowerneck -3.86749 -4.0519 -0.449631
upperneck -0.901088 -5.49445 3.75135
head 0.486913 -2.75756 1.1359
rclavicle 3.39332e-015 -4.57205e-015
rhumerus 4.79628 13.5132 -75.3298
rradius 78.9428
rwrist 15.0244
rhand -27.2012 38.2017
rfingers 7.12502
rthumb -0.61446 8.22283
lclavicle 3.39332e-015 -4.57205e-015
lhumerus -25.4541 21.2859 81.2076
lradius 9.65971
lwrist -25.4264
lhand -12.7643 47.8846
lfingers 7.12502
lthumb 13.3204 77.4388
rfemur -21.6327 -3.3983 17.8063
rtibia 16.6547
rfoot -1.38188 -8.02584
rtoes 5.76466
lfemur 16.2764 -4.26067 -16.4761
ltibia -3.18055e-015
lfoot -7.30459 -0.0553503
ltoes 36.1896
135
root 11.8374 16.3741 -0.103262 -173.202 -10.4281 179.885
lowerback -7.13166 -2.75283 -3.55443
upperback -1.41551 -3.49066 0.428406
thorax 2.76618 -1.80263 2.0989
lowerneck -3.96296 -4.06054 -0.685461
upperneck -0.778014 -5.49692 3.81701
head 0.55063 -2.75388 1.19258
rclavicle 9.00432e-015 -9.93923e-016
rhumerus 5.68713 13.5567 -74.9058
rradius 78.8997
rwrist 15.2587
rhand -27.3519 38.0504
rfingers 7.12502
rthumb -0.759969 8.07205
lclavicle 9.00432e-015 -9.93923e-016
lhumerus -25.5446 21.3758 81.1051
lradius 9.79422
lwrist -25.3101
lhand -12.8927 48.0614
lfingers 7.12502
lthumb 13.1966 77.6237
rfemur -21.3415 -3.59079 18.2053
rtibia 16.6162
rfoot -1.55084 -8.00186
rtoes 5.03804
lfemur 16.4814 -4.37073 -16.0998
ltibia 2.54444e-014
lfoot -6.93579 0.0299544
ltoes 37.2925
136
root 11.8756 16.3787 -0.175181 -173.222 -10.6414 180.077
lowerback -7.30228 -2.77138 -3.39658
upperback -1.38876 -3.52013 0.411638
thorax 2.88043 -1.81786 1.98127
lowerneck -4.04442 -4.05494 -0.634998
upperneck -0.715422 -5.49197 3.74601
head 0.579608 -2.75003 1.1597
rclavicle -2.28168e-014 -1.53064e-014
rhumerus 6.59113 13.4896 -74.725
rradius 78.795
rwrist 15.4246
rhand -27.2701 38.0239
rfingers 7.12502
rthumb -0.680921 8.04526
lclavicle -2.28168e-014 -1.53064e-014
lhumerus -25.5742 21.3958 80.9318
lradius 9.93435
lwrist -25.0958
lhand -12.9938 48.0492
lfingers 7.12502
lthumb 13.0992 77.6178
rfemur -21.0481 -3.67228 18.6169
rtibia 16.574
rfoot -1.66797 -8.13285
rtoes 2.38991
lfemur 16.6405 -4.59046 -15.6926
ltibia -6.36111e-015
lfoot -6.50033 0.16492
ltoes 37.0048
